<?xml version="1.0" encoding="UTF-8"?>
<svg id="a" data-name="Ebene 1" xmlns="http://www.w3.org/2000/svg" viewBox="0 0 200.25 200.25">
  <rect x=".125" y=".125" width="200" height="200" style="fill: #1f2937; stroke: #1f2937; stroke-miterlimit: 10; stroke-width: .25px;"/>
  <path d="m142.09277,177.20508c1.66016,4.08398-.29883,8.73242-4.38281,10.39258s-8.73242-.29883-10.39258-4.38281l-15.60547-38.28223c-1.99219.46484-4.08398.73047-6.24219.73047s-4.24902-.23242-6.24072-.73047l-15.60547,38.28223c-1.66016,4.08496-6.30859,6.04297-10.39258,4.38379-4.08398-1.66016-6.04297-6.30859-4.38281-10.39258l16.56836-40.64062c-4.08398-4.64844-6.54102-10.75781-6.54102-17.43164,0-14.67578,11.88672-26.5625,26.56201-26.5625s26.5625,11.88672,26.5625,26.5625c0,6.67383-2.45703,12.7832-6.54102,17.43164l16.63379,40.63965Zm-36.65527-47.44629c5.86719,0,10.625-4.75684,10.625-10.625s-4.75781-10.625-10.625-10.625c-5.86768,0-10.62451,4.75684-10.62451,10.625s4.75684,10.625,10.62451,10.625Zm42.20117-108.90625c5.08008-2.92188,11.58789-1.19531,14.50977,3.88477l31.875,55.2168c2.92188,5.08008,1.19531,11.58789-3.88477,14.50977l-18.39453,10.625c-5.08008,2.92188-11.58789,1.19531-14.50977-3.88477l-31.875-55.2168c-2.95508-5.08008-1.19531-11.58789,3.88477-14.50977l18.39453-10.625Z" style="fill: #9ca3af; stroke-width: 0px;"/>
  <path d="m124.37988,43.62988c.23242.79688.56445,1.59375.99609,2.35742l31.875,55.2168c.06641.13281.16602.26562.23242.39844l-25.73242,13.8125c-1.79297-12.91602-12.88281-22.84375-26.29688-22.84375-14.67529,0-26.56201,11.88672-26.56201,26.5625,0,6.67383,2.45703,12.7832,6.54102,17.43164l-1.92578,4.71484-29.35156,15.73828c-5.04688,2.72266-11.35547.92969-14.21094-4.05078l-.26562-.46484-14.67578,8.5c-3.81836,2.19141-8.69922.89648-10.89062-2.92188l-8.56641-14.9082c-2.19141-3.81836-.89648-8.69922,2.92188-10.89062l14.64258-8.4668-1.32812-2.29102c-2.82227-4.91406-1.32812-11.18945,3.45312-14.24414l99.14404-63.65039Z" style="fill: #4c5563; stroke-width: 0px;"/>
</svg>